<?xml version="1.0" standalone="no"?><!DOCTYPE svg PUBLIC "-//W3C//DTD SVG 1.1//EN" "http://www.w3.org/Graphics/SVG/1.1/DTD/svg11.dtd"><svg xmlns="http://www.w3.org/2000/svg" version="1.1" width="1023.351" height="772.667" xmlns:xlink="http://www.w3.org/1999/xlink" xlink="http://www.w3.org/1999/xlink" style="position:relative;overflow:hidden;" viewBox="-12 -12 1023.351 772.667"><defs><filter id="537afb17-6434-436d-829e-1a44d0f451c1" x="-0.5" y="-0.5" width="2" height="2"><feMerge><feMergeNode in="SourceGraphic"/></feMerge></filter><style type="text/css">@import url(https://fonts.googleapis.com/css?family=Open+Sans:400,700,400italic,700italic:latin);</style></defs><g><g width="999.667" height="75" transform="scale(1,1) translate(-2.667,0)"><g stroke="#FFFFFF" opacity="1" stroke-width="0" stroke-dasharray="none" width="999.667" height="75" transform="scale(1,1) translate(0,0)" fill="#545454" fill-opacity="1" stroke-opacity="1"><rect width="999.667" height="75"/></g></g><g width="78.857" height="34" transform="scale(1,1) translate(527.405,20.5)"><g stroke="#000000" opacity="1" stroke-width="0" stroke-dasharray="none" width="78.857" height="34" transform="scale(1,1) translate(0,0)" fill="none" stroke-opacity="1"><rect width="78.857" height="34"/></g><g width="78.857421875" height="34" transform="scale(1,1) translate(0,0)"><text width="78.857421875" height="22.91666603088379" transform="scale(1,1) translate(0,5.5416669845581055)" xml:space="preserve"><tspan xml:space="preserve" text-rendering="optimizeSpeed" font-size="16.666666666666668" font-weight="bold" font-style="normal" fill="#FFFFFF" opacity="1" x="0" text-anchor="start" y="17.708" textLength="78.857421875" style="font-family: Open Sans, Helvetica Neue, Helvetica, sans-serif;">CONTACT</tspan></text></g></g><g width="58.211" height="34" transform="scale(1,1) translate(346.061,20.5)"><g stroke="#000000" opacity="1" stroke-width="0" stroke-dasharray="none" width="58.211" height="34" transform="scale(1,1) translate(0,0)" fill="none" stroke-opacity="1"><rect width="58.211" height="34"/></g><g width="58.21126174926758" height="34" transform="scale(1,1) translate(0,0)"><text width="58.21126174926758" height="22.91666603088379" transform="scale(1,1) translate(0,5.5416669845581055)" xml:space="preserve"><tspan xml:space="preserve" text-rendering="optimizeSpeed" font-size="16.666666666666668" font-weight="bold" font-style="normal" fill="#FFFFFF" opacity="1" x="0" text-anchor="start" y="17.708" textLength="58.21126174926758" style="font-family: Open Sans, Helvetica Neue, Helvetica, sans-serif;">ABOUT</tspan></text></g></g><g width="45.662" height="34" transform="scale(1,1) translate(442.919,20.5)"><g stroke="#000000" opacity="1" stroke-width="0" stroke-dasharray="none" width="45.662" height="34" transform="scale(1,1) translate(0,0)" fill="none" stroke-opacity="1"><rect width="45.662" height="34"/></g><g width="45.66242980957031" height="34" transform="scale(1,1) translate(0,0)"><text width="45.66242980957031" height="22.91666603088379" transform="scale(1,1) translate(0,5.5416669845581055)" xml:space="preserve"><tspan xml:space="preserve" text-rendering="optimizeSpeed" font-size="16.666666666666668" font-weight="bold" font-style="normal" fill="#D8D8D8" opacity="1" x="0" text-anchor="start" y="17.708" textLength="45.66242980957031" style="font-family: Open Sans, Helvetica Neue, Helvetica, sans-serif;">SHOP</tspan></text><g width="45.66242980957031" height="22.91666603088379" transform="scale(1,1) translate(0,5.5416669845581055)"><path d="M0,19.708h45.662" stroke-width="1" stroke="#D8D8D8" fill="none"/></g></g></g><g width="227.527" height="34" transform="scale(1,1) translate(28.07,20.5)"><g stroke="#000000" opacity="1" stroke-width="0" stroke-dasharray="none" width="227.527" height="34" transform="scale(1,1) translate(0,0)" fill="none" stroke-opacity="1"><rect width="227.527" height="34"/></g><g width="227.52685546875" height="34.375" transform="scale(1,1) translate(0,0)"><text width="227.52685546875" height="34.375" transform="scale(1,1) translate(0,0)" xml:space="preserve"><tspan xml:space="preserve" text-rendering="optimizeSpeed" font-size="25" font-weight="bold" font-style="normal" fill="#FFFFFF" opacity="1" x="0" text-anchor="start" y="27.083" textLength="227.52685546875" style="font-family: Open Sans, Helvetica Neue, Helvetica, sans-serif;">YOUR SHOP NAME</tspan></text></g></g><g width="43.667" height="34" transform="scale(1,1) translate(644.917,20.5)"><g stroke="#000000" opacity="1" stroke-width="0" stroke-dasharray="none" width="43.667" height="34" transform="scale(1,1) translate(0,0)" fill="none" stroke-opacity="1"><rect width="43.667" height="34"/></g><g width="43.666666666666664" height="34" transform="scale(1,1) translate(0,0)"><text width="43.666666666666664" height="22.91666603088379" transform="scale(1,1) translate(0,5.5416669845581055)" xml:space="preserve"><tspan xml:space="preserve" text-rendering="optimizeSpeed" font-size="16.666666666666668" font-weight="bold" font-style="normal" fill="#FFFFFF" opacity="1" x="0.447" text-anchor="start" y="17.708" textLength="42.773433685302734" style="font-family: Open Sans, Helvetica Neue, Helvetica, sans-serif;">CART</tspan></text></g></g><g width="25.018" height="745.667" transform="scale(1,1) translate(976.833,0.5)"><g stroke="#545454" opacity="1" stroke-width="1" stroke-dasharray="none" width="25.018" height="745.667" transform="scale(1,1) translate(0,0)" fill="#FFFFFF" fill-opacity="1" stroke-opacity="1"><rect width="25.018" height="745.667"/></g><g transform="scale(1,1) translate(0,0)" fill="#F2F2F2" opacity="1" stroke="#F2F2F2"><path d="M0.5,0.5 L24.518,0.5 L24.518,24 L0.5,24 z M0.5,24 L24.518,24 L24.518,721.5 L0.5,721.5 z M0.5,721.5 L24.518,721.5 L24.518,745.167 L0.5,745.167 z" stroke-width="0" stroke-dasharray="none"/></g><g transform="scale(1,1) translate(0,0)" fill="#545454" stroke="#545454" stroke-opacity="0"><path d="M0.5,24 L24.518,24" fill="none" stroke-width="1" stroke-dasharray="1,1"/><g><g stroke-dasharray="none"><path d="M-0.5,23L1.5,23L1.5,25L-0.5,25z" stroke-width="0" fill="none"/></g></g></g><g transform="scale(1,1) translate(0,0)" fill="#545454" stroke="#545454" stroke-opacity="0"><path d="M0.5,721.5 L24.518,721.5" fill="none" stroke-width="1" stroke-dasharray="1,1"/><g><g stroke-dasharray="none"><path d="M-0.5,720.5L1.5,720.5L1.5,722.5L-0.5,722.5z" stroke-width="0" fill="none"/></g></g></g><g stroke="white" fill="none" stroke-opacity="0" stroke-width="3" stroke-dasharray="none" width="3" height="744.667" transform="scale(1,1) translate(3.5,0.5)"><rect width="3" height="744.667"/></g><g stroke="white" fill="none" stroke-opacity="0" stroke-width="3" stroke-dasharray="none" width="24.018" height="3" transform="scale(1,1) translate(0.5,3.5)"><rect width="24.018" height="3"/></g></g><g width="15.167" height="7.333" transform="scale(1,1) translate(980.537,730.167)"><g transform="scale(1,1) translate(0,0)" stroke="#436176" fill="#545454" fill-opacity="1" stroke-opacity="1"><path d="M0,0 L15.167,0 L7.583,7.333 L0,0 z" stroke-width="0" stroke-dasharray="none"/></g></g><g width="15" height="6.667" transform="scale(1,1) translate(980.621,9.417)"><g transform="scale(1,1) translate(0,0)" stroke="#436176" fill="#545454" fill-opacity="1" stroke-opacity="1"><path d="M7.5,0 L15,6.667 L0,6.667 L7.5,0 z" stroke-width="0" stroke-dasharray="none"/></g></g><g width="18" height="83.167" transform="scale(1,1) translate(979.324,331.667)"><g stroke="#545454" opacity="1" stroke-width="1" stroke-dasharray="none" width="18" height="83.167" transform="scale(1,1) translate(0,0)" fill="#545454" fill-opacity="1" stroke-opacity="1"><rect width="18" height="83.167"/></g></g><g width="696.833" height="254.167" transform="scale(1,1) translate(148.5,112.333)"><g width="696.833" height="254.167"><g transform="scale(0.7427603894039152,0.7439016084606541) translate(0,0)"><g><g width="938.167" height="341.667" transform="scale(1,1) translate(0,0)"><g stroke="#FFFFFF" opacity="1" stroke-width="0" stroke-dasharray="none" width="938.167" height="341.667" transform="scale(1,1) translate(0,0)" fill="#545454" fill-opacity="1" stroke-opacity="1"><rect width="938.167" height="341.667"/></g></g><g width="937" height="243.667" transform="scale(1,1) translate(0.5,97.333)"><g transform="scale(1,1) translate(0,0)" stroke="#545454" fill="#D8D8D8" fill-opacity="1" stroke-opacity="1"><path d="M0,243.667 L0,243.667 L937,243.667 L937,243.667 L937,243.667 L937,90.706 L937,90.706 L937,90.706 L693.574,165.178 L693.574,165.178 L693.574,165.178 L277.296,0 L277.296,0 L277.296,0 L0,117.482 L0,117.482 L0,117.482 L0,243.667 L0,243.667 z" stroke-width="0" stroke-dasharray="none"/></g></g><g width="93" height="93" transform="scale(1,1) translate(634,86.167)"><g width="93" height="93" transform="scale(1,1) translate(0,0)" stroke="#545454" stroke-width="0" stroke-dasharray="none" fill="#D8D8D8" fill-opacity="1" stroke-opacity="1"><ellipse rx="46.5" ry="46.5" cx="46.5" cy="46.5"/></g></g></g></g></g></g><g width="18.833" height="16.833" transform="scale(1,1) translate(824.5,383.5)"><g width="18.833" height="16.833" transform="scale(1,1) translate(0,0)" fill="url(#4b28fa96-2800-43a3-844d-8fc3a492e81b)" filter="url(#537afb17-6434-436d-829e-1a44d0f451c1)"><pattern id="4b28fa96-2800-43a3-844d-8fc3a492e81b" x="0" y="0" width="19.833" height="17.833" patternUnits="userSpaceOnUse" preserveAspectRatio="none meet" viewBox="0 0 19.833 17.833"><image xlink:href="https://cloud.smartdraw.com/CMSStorage/symbols/Hashes/svg/7019309290C471D676F1EA7872B136E6.svg" x="0" y="0" width="153.434" height="131.236" transform="scale(0.123,0.128) translate(0,0)" preserveAspectRatio="none"/></pattern><rect width="18.833" height="16.833"/></g></g><g width="18.333" height="15.167" transform="scale(1,1) translate(798.5,383.667)"><g width="18.333" height="15.167" transform="scale(1,1) translate(0,0)" fill="url(#27a94e34-5405-494f-89cb-874b02bef817)" filter="url(#537afb17-6434-436d-829e-1a44d0f451c1)"><pattern id="27a94e34-5405-494f-89cb-874b02bef817" x="0" y="0" width="19.333" height="16.167" patternUnits="userSpaceOnUse" preserveAspectRatio="none meet" viewBox="0 0 19.333 16.167"><image xlink:href="https://cloud.smartdraw.com/CMSStorage/symbols/Hashes/svg/A0AC18722B99F082E5CECA79F74DABDF.svg" x="0" y="0" width="134.858" height="109.293" transform="scale(0.136,0.139) translate(0,0)" preserveAspectRatio="none"/></pattern><rect width="18.333" height="15.167"/></g></g><g width="8.833" height="18.333" transform="scale(1,1) translate(782,381.333)"><g width="8.833" height="18.333" transform="scale(1,1) translate(0,0)" fill="url(#c4b22b9c-3ad9-41a0-85ab-1328b7a01db7)" filter="url(#537afb17-6434-436d-829e-1a44d0f451c1)"><pattern id="c4b22b9c-3ad9-41a0-85ab-1328b7a01db7" x="0" y="0" width="9.833" height="19.333" patternUnits="userSpaceOnUse" preserveAspectRatio="none meet" viewBox="0 0 9.833 19.333"><image xlink:href="https://cloud.smartdraw.com/CMSStorage/symbols/Hashes/svg/1CF87993C35EE883B577B953BB1159D7.svg" x="0" y="0" width="65.798" height="140.58" transform="scale(0.134,0.13) translate(0,0)" preserveAspectRatio="none"/></pattern><rect width="8.833" height="18.333"/></g></g><g width="223.167" height="223" transform="scale(1,1) translate(148.167,456.167)"><g width="223.167" height="223"><g transform="scale(1.0044995499923448,1.0045045275188027) translate(0,0)"><g><g width="222.167" height="222" transform="scale(1,1) translate(0,0)"><g stroke="#545454" opacity="1" stroke-width="0" stroke-dasharray="none" width="222.167" height="222" transform="scale(1,1) translate(0,0)" fill="#545454" fill-opacity="1" stroke-opacity="1"><rect width="222.167" height="222"/></g></g><g width="218.167" height="90.833" transform="scale(1,1) translate(1.5,100.5)"><g transform="scale(1,1) translate(0,0)" stroke="#545454" fill="#7F7F7F" fill-opacity="1" stroke-opacity="1"><path d="M0,90.833 L218.167,90.833 L218.167,33.833 L161.5,61.5 L64.333,0 L0,43.5 L0,90.833 z" stroke-width="0" stroke-dasharray="none"/></g></g><g width="41.333" height="41.333" transform="scale(1,1) translate(140.333,69.167)"><g width="41.333" height="41.333" transform="scale(1,1) translate(0,0)" stroke="#545454" stroke-width="0" stroke-dasharray="none" fill="#7F7F7F" fill-opacity="1" stroke-opacity="1"><ellipse rx="20.6665" ry="20.6665" cx="20.6665" cy="20.6665"/></g></g></g></g></g></g><g width="223" height="223.333" transform="scale(1,1) translate(385.167,456.167)"><g width="223" height="223.333"><g transform="scale(1.0045045275188027,1.0044991758640842) translate(0,0)"><g><g width="222" height="222.333" transform="scale(1,1) translate(0,0)"><g stroke="#545454" opacity="1" stroke-width="0" stroke-dasharray="none" width="222" height="222.333" transform="scale(1,1) translate(0,0)" fill="#545454" fill-opacity="1" stroke-opacity="1"><rect width="222" height="222.333"/></g></g><g width="218" height="91" transform="scale(1,1) translate(1.5,100.667)"><g transform="scale(1,1) translate(0,0)" stroke="#545454" fill="#7F7F7F" fill-opacity="1" stroke-opacity="1"><path d="M0,91 L218,91 L218,33.833 L161.333,61.667 L64.333,0 L0,43.5 L0,91 z" stroke-width="0" stroke-dasharray="none"/></g></g><g width="41.167" height="41.333" transform="scale(1,1) translate(140.333,69.333)"><g width="41.167" height="41.333" transform="scale(1,1) translate(0,0)" stroke="#545454" stroke-width="0" stroke-dasharray="none" fill="#7F7F7F" fill-opacity="1" stroke-opacity="1"><ellipse rx="20.5835" ry="20.6665" cx="20.5835" cy="20.6665"/></g></g></g></g></g></g><g width="223.333" height="223" transform="scale(1,1) translate(622,456.167)"><g width="223.333" height="223"><g transform="scale(1.0044991758640842,1.0045045275188027) translate(0,0)"><g><g width="222.333" height="222" transform="scale(1,1) translate(0,0)"><g stroke="#545454" opacity="1" stroke-width="0" stroke-dasharray="none" width="222.333" height="222" transform="scale(1,1) translate(0,0)" fill="#545454" fill-opacity="1" stroke-opacity="1"><rect width="222.333" height="222"/></g></g><g width="218.333" height="90.833" transform="scale(1,1) translate(1.5,100.5)"><g transform="scale(1,1) translate(0,0)" stroke="#545454" fill="#7F7F7F" fill-opacity="1" stroke-opacity="1"><path d="M0,90.833 L218.333,90.833 L218.333,33.833 L161.667,61.5 L64.5,0 L0,43.5 L0,90.833 z" stroke-width="0" stroke-dasharray="none"/></g></g><g width="41.333" height="41.333" transform="scale(1,1) translate(140.5,69.167)"><g width="41.333" height="41.333" transform="scale(1,1) translate(0,0)" stroke="#545454" stroke-width="0" stroke-dasharray="none" fill="#7F7F7F" fill-opacity="1" stroke-opacity="1"><ellipse rx="20.6665" ry="20.6665" cx="20.6665" cy="20.6665"/></g></g></g></g></g></g><g width="132.167" height="36.5" transform="scale(1,1) translate(148.167,685)"><g transform="scale(1,1) translate(0,0)" stroke="#D8D8D8" fill="#545454" fill-opacity="1" stroke-opacity="1"><path d="M0,7.3 a7.3,7.3 0 0,1 7.3,-7.3 l117.567,0 a7.3,7.3 0 0,1 7.3,7.3 l0,21.9 a7.3,7.3 0 0,1 -7.3,7.3 l-117.567,0 a7.3,7.3 0 0,1 -7.3,-7.3 z" stroke-width="0" stroke-dasharray="none"/></g><g width="127.89042568386665" height="32.223759017199995" transform="scale(1,1) translate(2.138,2.138)"><text width="127.89042568386665" height="17.708332061767578" transform="scale(1,1) translate(0,7.257713477716209)" xml:space="preserve"><tspan xml:space="preserve" text-rendering="optimizeSpeed" font-size="12.5" font-weight="bold" font-style="normal" fill="#F2F2F2" opacity="1" x="20.149" text-anchor="start" y="13.542" textLength="87.59154510498047" style="font-family: Open Sans, Helvetica Neue, Helvetica, sans-serif;">      add to cart</tspan></text></g></g><g width="21.167" height="18.5" transform="scale(1,1) translate(163,694.167)"><g width="21.167" height="18.5"><g transform="scale(0.32480661237009595,0.3343393009181754) translate(0,0)"><g><g width="10" height="10" transform="scale(1,1) translate(50.167,45.333)"><g transform="scale(1,1) translate(0,0)" stroke="#000000" fill="#F2F2F2" fill-opacity="1" stroke-opacity="1"><path d="M8.5,1.5 L7.667,0.667 L7,0.333 L5.833,0.167 L4.833,0 L4,0.167 L3,0.333 L2.167,0.667 L1.5,1.5 L0.667,2.167 L0.333,3 L0.167,3.833 L0,5 L0.167,6 L0.333,7 L0.667,7.667 L1.5,8.5 L2.167,9.167 L3,9.667 L4,9.833 L4.833,10 L5.833,9.833 L7,9.667 L7.667,9.167 L8.5,8.5 L9.167,7.667 L9.667,7 L10,6 L10,5 L10,3.833 L9.667,3 L9.167,2.167 L8.5,1.5 z" stroke-width="0" stroke-dasharray="none"/></g></g><g width="10" height="10" transform="scale(1,1) translate(15,45.333)"><g transform="scale(1,1) translate(0,0)" stroke="#000000" fill="#F2F2F2" fill-opacity="1" stroke-opacity="1"><path d="M8.5,1.5 L7.833,0.667 L7,0.333 L6,0.167 L5,0 L4,0.167 L3,0.333 L2.167,0.667 L1.5,1.5 L0.667,2.167 L0.333,3 L0.167,3.833 L0,5 L0.167,6 L0.333,7 L0.667,7.667 L1.5,8.5 L2.167,9.167 L3,9.667 L4,9.833 L5,10 L6,9.833 L7,9.667 L7.833,9.167 L8.5,8.5 L9.167,7.667 L9.667,7 L10,6 L10,5 L10,3.833 L9.667,3 L9.167,2.167 L8.5,1.5 z" stroke-width="0" stroke-dasharray="none"/></g></g><g width="65.167" height="45.167" transform="scale(1,1) translate(0,0)"><g transform="scale(1,1) translate(0,0)" stroke="#000000" fill="#F2F2F2" fill-opacity="1" stroke-opacity="1"><path d="M65.167,7.667 L65.167,7.667 L65,6.667 L64.833,6.333 L64.333,5.833 L64,5.5 L63.5,5.333 L62.5,5 L15.667,5 L15.5,4.667 L15.333,4 L15.333,3.5 L15.167,3 L15,2.5 L14.833,1.833 L14.667,1.333 L14.333,0.833 L14,0.667 L13.5,0.333 L13.167,0.167 L12.5,0 L2.5,0 L1.5,0.333 L0.667,0.833 L0.333,1.667 L0,2.5 L0.333,3.5 L0.667,4.333 L1.5,4.833 L2.5,5 L10.5,5 L17.333,37.167 L17.333,37.5 L17.167,37.667 L17,38.167 L16.667,38.833 L16,40 L15.5,41.167 L15.167,42 L15,42.667 L15.167,43.5 L15.667,44.5 L16.667,45 L17.5,45.167 L57.667,45.167 L58.5,45 L59.333,44.5 L59.833,43.5 L60.167,42.667 L59.833,41.667 L59.333,41 L59,40.667 L58.5,40.333 L57.667,40.333 L21.667,40.333 L22,39.333 L22.333,38.667 L22.5,38 L22.667,37.667 L22.667,37.333 L22.5,36.833 L22.167,35.833 L22,35.333 L22,35 L62.833,30.167 L63.833,30 L64.5,29.333 L64.833,29 L65,28.667 L65.167,27.667 L65.167,7.667 z" stroke-width="0" stroke-dasharray="none"/></g></g></g></g></g></g><g width="132.667" height="36.5" transform="scale(1,1) translate(385.167,685)"><g transform="scale(1,1) translate(0,0)" stroke="#D8D8D8" fill="#545454" fill-opacity="1" stroke-opacity="1"><path d="M0,7.3 a7.3,7.3 0 0,1 7.3,-7.3 l118.067,0 a7.3,7.3 0 0,1 7.3,7.3 l0,21.9 a7.3,7.3 0 0,1 -7.3,7.3 l-118.067,0 a7.3,7.3 0 0,1 -7.3,-7.3 z" stroke-width="0" stroke-dasharray="none"/></g><g width="128.39042568386665" height="32.223759017199995" transform="scale(1,1) translate(2.138,2.138)"><text width="128.39042568386665" height="17.708332061767578" transform="scale(1,1) translate(0,7.257713477716209)" xml:space="preserve"><tspan xml:space="preserve" text-rendering="optimizeSpeed" font-size="12.5" font-weight="bold" font-style="normal" fill="#F2F2F2" opacity="1" x="20.399" text-anchor="start" y="13.542" textLength="87.59154510498047" style="font-family: Open Sans, Helvetica Neue, Helvetica, sans-serif;">      add to cart</tspan></text></g></g><g width="21.167" height="18.5" transform="scale(1,1) translate(400,694.167)"><g width="21.167" height="18.5"><g transform="scale(0.32480661237009595,0.3343393009181754) translate(0,0)"><g><g width="10" height="10" transform="scale(1,1) translate(50.167,45.333)"><g transform="scale(1,1) translate(0,0)" stroke="#000000" fill="#F2F2F2" fill-opacity="1" stroke-opacity="1"><path d="M8.5,1.5 L7.667,0.667 L7,0.333 L5.833,0.167 L4.833,0 L4,0.167 L3,0.333 L2.167,0.667 L1.5,1.5 L0.667,2.167 L0.333,3 L0.167,3.833 L0,5 L0.167,6 L0.333,7 L0.667,7.667 L1.5,8.5 L2.167,9.167 L3,9.667 L4,9.833 L4.833,10 L5.833,9.833 L7,9.667 L7.667,9.167 L8.5,8.5 L9.167,7.667 L9.667,7 L10,6 L10,5 L10,3.833 L9.667,3 L9.167,2.167 L8.5,1.5 z" stroke-width="0" stroke-dasharray="none"/></g></g><g width="10" height="10" transform="scale(1,1) translate(15,45.333)"><g transform="scale(1,1) translate(0,0)" stroke="#000000" fill="#F2F2F2" fill-opacity="1" stroke-opacity="1"><path d="M8.5,1.5 L7.833,0.667 L7,0.333 L6,0.167 L5,0 L4,0.167 L3,0.333 L2.167,0.667 L1.5,1.5 L0.667,2.167 L0.333,3 L0.167,3.833 L0,5 L0.167,6 L0.333,7 L0.667,7.667 L1.5,8.5 L2.167,9.167 L3,9.667 L4,9.833 L5,10 L6,9.833 L7,9.667 L7.833,9.167 L8.5,8.5 L9.167,7.667 L9.667,7 L10,6 L10,5 L10,3.833 L9.667,3 L9.167,2.167 L8.5,1.5 z" stroke-width="0" stroke-dasharray="none"/></g></g><g width="65.167" height="45.167" transform="scale(1,1) translate(0,0)"><g transform="scale(1,1) translate(0,0)" stroke="#000000" fill="#F2F2F2" fill-opacity="1" stroke-opacity="1"><path d="M65.167,7.667 L65.167,7.667 L65,6.667 L64.833,6.333 L64.333,5.833 L64,5.5 L63.5,5.333 L62.5,5 L15.667,5 L15.5,4.667 L15.333,4 L15.333,3.5 L15.167,3 L15,2.5 L14.833,1.833 L14.667,1.333 L14.333,0.833 L14,0.667 L13.5,0.333 L13.167,0.167 L12.5,0 L2.5,0 L1.5,0.333 L0.667,0.833 L0.333,1.667 L0,2.5 L0.333,3.5 L0.667,4.333 L1.5,4.833 L2.5,5 L10.5,5 L17.333,37.167 L17.333,37.5 L17.167,37.667 L17,38.167 L16.667,38.833 L16,40 L15.5,41.167 L15.167,42 L15,42.667 L15.167,43.5 L15.667,44.5 L16.667,45 L17.5,45.167 L57.667,45.167 L58.5,45 L59.333,44.5 L59.833,43.5 L60.167,42.667 L59.833,41.667 L59.333,41 L59,40.667 L58.5,40.333 L57.667,40.333 L21.667,40.333 L22,39.333 L22.333,38.667 L22.5,38 L22.667,37.667 L22.667,37.333 L22.5,36.833 L22.167,35.833 L22,35.333 L22,35 L62.833,30.167 L63.833,30 L64.5,29.333 L64.833,29 L65,28.667 L65.167,27.667 L65.167,7.667 z" stroke-width="0" stroke-dasharray="none"/></g></g></g></g></g></g><g width="132.5" height="36.5" transform="scale(1,1) translate(622,685)"><g transform="scale(1,1) translate(0,0)" stroke="#D8D8D8" fill="#545454" fill-opacity="1" stroke-opacity="1"><path d="M0,7.3 a7.3,7.3 0 0,1 7.3,-7.3 l117.9,0 a7.3,7.3 0 0,1 7.3,7.3 l0,21.9 a7.3,7.3 0 0,1 -7.3,7.3 l-117.9,0 a7.3,7.3 0 0,1 -7.3,-7.3 z" stroke-width="0" stroke-dasharray="none"/></g><g width="128.2237590172" height="32.223759017199995" transform="scale(1,1) translate(2.138,2.138)"><text width="128.2237590172" height="17.708332061767578" transform="scale(1,1) translate(0,7.257713477716209)" xml:space="preserve"><tspan xml:space="preserve" text-rendering="optimizeSpeed" font-size="12.5" font-weight="bold" font-style="normal" fill="#F2F2F2" opacity="1" x="20.316" text-anchor="start" y="13.542" textLength="87.59154510498047" style="font-family: Open Sans, Helvetica Neue, Helvetica, sans-serif;">      add to cart</tspan></text></g></g><g width="21.167" height="18.5" transform="scale(1,1) translate(636.833,694.167)"><g width="21.167" height="18.5"><g transform="scale(0.32480661237009595,0.3343393009181754) translate(0,0)"><g><g width="10" height="10" transform="scale(1,1) translate(50.167,45.333)"><g transform="scale(1,1) translate(0,0)" stroke="#000000" fill="#F2F2F2" fill-opacity="1" stroke-opacity="1"><path d="M8.5,1.5 L7.667,0.667 L7,0.333 L5.833,0.167 L4.833,0 L4,0.167 L3,0.333 L2.167,0.667 L1.5,1.5 L0.667,2.167 L0.333,3 L0.167,3.833 L0,5 L0.167,6 L0.333,7 L0.667,7.667 L1.5,8.5 L2.167,9.167 L3,9.667 L4,9.833 L4.833,10 L5.833,9.833 L7,9.667 L7.667,9.167 L8.5,8.5 L9.167,7.667 L9.667,7 L10,6 L10,5 L10,3.833 L9.667,3 L9.167,2.167 L8.5,1.5 z" stroke-width="0" stroke-dasharray="none"/></g></g><g width="10" height="10" transform="scale(1,1) translate(15,45.333)"><g transform="scale(1,1) translate(0,0)" stroke="#000000" fill="#F2F2F2" fill-opacity="1" stroke-opacity="1"><path d="M8.5,1.5 L7.833,0.667 L7,0.333 L6,0.167 L5,0 L4,0.167 L3,0.333 L2.167,0.667 L1.5,1.5 L0.667,2.167 L0.333,3 L0.167,3.833 L0,5 L0.167,6 L0.333,7 L0.667,7.667 L1.5,8.5 L2.167,9.167 L3,9.667 L4,9.833 L5,10 L6,9.833 L7,9.667 L7.833,9.167 L8.5,8.5 L9.167,7.667 L9.667,7 L10,6 L10,5 L10,3.833 L9.667,3 L9.167,2.167 L8.5,1.5 z" stroke-width="0" stroke-dasharray="none"/></g></g><g width="65.167" height="45.167" transform="scale(1,1) translate(0,0)"><g transform="scale(1,1) translate(0,0)" stroke="#000000" fill="#F2F2F2" fill-opacity="1" stroke-opacity="1"><path d="M65.167,7.667 L65.167,7.667 L65,6.667 L64.833,6.333 L64.333,5.833 L64,5.5 L63.5,5.333 L62.5,5 L15.667,5 L15.5,4.667 L15.333,4 L15.333,3.5 L15.167,3 L15,2.5 L14.833,1.833 L14.667,1.333 L14.333,0.833 L14,0.667 L13.5,0.333 L13.167,0.167 L12.5,0 L2.5,0 L1.5,0.333 L0.667,0.833 L0.333,1.667 L0,2.5 L0.333,3.5 L0.667,4.333 L1.5,4.833 L2.5,5 L10.5,5 L17.333,37.167 L17.333,37.5 L17.167,37.667 L17,38.167 L16.667,38.833 L16,40 L15.5,41.167 L15.167,42 L15,42.667 L15.167,43.5 L15.667,44.5 L16.667,45 L17.5,45.167 L57.667,45.167 L58.5,45 L59.333,44.5 L59.833,43.5 L60.167,42.667 L59.833,41.667 L59.333,41 L59,40.667 L58.5,40.333 L57.667,40.333 L21.667,40.333 L22,39.333 L22.333,38.667 L22.5,38 L22.667,37.667 L22.667,37.333 L22.5,36.833 L22.167,35.833 L22,35.333 L22,35 L62.833,30.167 L63.833,30 L64.5,29.333 L64.833,29 L65,28.667 L65.167,27.667 L65.167,7.667 z" stroke-width="0" stroke-dasharray="none"/></g></g></g></g></g></g></g></svg>